<?xml version="1.0" encoding="UTF-8" standalone="no"?>
<!DOCTYPE svg PUBLIC "-//W3C//DTD SVG 1.1//EN" "http://www.w3.org/Graphics/SVG/1.1/DTD/svg11.dtd">
<!-- Generated by graphviz version 2.40.1 (20161225.0304)
 -->
<!-- Title: %0 Pages: 1 -->
<svg width="547pt" height="44pt" viewBox="0.00 0.00 547.00 44.00" xmlns="http://www.w3.org/2000/svg" xmlns:xlink="http://www.w3.org/1999/xlink">
<g id="graph0" class="graph" transform="scale(1 1) rotate(0) translate(4 40)">
<title>%0</title>
<polygon fill="#ffffff" stroke="transparent" points="-4,4 -4,-40 543.0016,-40 543.0016,4 -4,4"/>
<!-- key -->
<g id="node1" class="node">
<title>key</title>
<polygon fill="none" stroke="#000000" points="79.6197,-36 .1265,-36 .1265,0 79.6197,0 79.6197,-36"/>
<text text-anchor="middle" x="39.8731" y="-13.8" font-family="Times,serif" font-size="14.00" fill="#000000">[object]key</text>
</g>
<!-- hashKey -->
<g id="node2" class="node">
<title>hashKey</title>
<polygon fill="none" stroke="#000000" points="240.5192,-36 115.8218,-36 115.8218,0 240.5192,0 240.5192,-36"/>
<text text-anchor="middle" x="178.1705" y="-13.8" font-family="Times,serif" font-size="14.00" fill="#000000">[int]hashCode(key)</text>
</g>
<!-- key&#45;&gt;hashKey -->
<g id="edge1" class="edge">
<title>key-&gt;hashKey</title>
<path fill="none" stroke="#000000" d="M79.8744,-18C87.9017,-18 96.5705,-18 105.3185,-18"/>
<polygon fill="#000000" stroke="#000000" points="105.5907,-21.5001 115.5906,-18 105.5906,-14.5001 105.5907,-21.5001"/>
</g>
<!-- addr -->
<g id="node3" class="node">
<title>addr</title>
<polygon fill="none" stroke="#000000" points="427.455,-36 276.6414,-36 276.6414,0 427.455,0 427.455,-36"/>
<text text-anchor="middle" x="352.0482" y="-13.8" font-family="Times,serif" font-size="14.00" fill="#000000">hashCode % 数组长度</text>
</g>
<!-- hashKey&#45;&gt;addr -->
<g id="edge2" class="edge">
<title>hashKey-&gt;addr</title>
<path fill="none" stroke="#000000" d="M240.9443,-18C249.2645,-18 257.9053,-18 266.5276,-18"/>
<polygon fill="#000000" stroke="#000000" points="266.6205,-21.5001 276.6205,-18 266.6204,-14.5001 266.6205,-21.5001"/>
</g>
<!-- index -->
<g id="node4" class="node">
<title>index</title>
<polygon fill="none" stroke="#000000" points="538.7532,-36 463.75,-36 463.75,0 538.7532,0 538.7532,-36"/>
<text text-anchor="middle" x="501.2516" y="-13.8" font-family="Times,serif" font-size="14.00" fill="#000000">数组索引</text>
</g>
<!-- addr&#45;&gt;index -->
<g id="edge3" class="edge">
<title>addr-&gt;index</title>
<path fill="none" stroke="#000000" d="M427.5241,-18C436.3671,-18 445.1937,-18 453.5068,-18"/>
<polygon fill="#000000" stroke="#000000" points="453.7247,-21.5001 463.7247,-18 453.7247,-14.5001 453.7247,-21.5001"/>
</g>
</g>
</svg>