<?xml version="1.0" encoding="UTF-8" standalone="no"?>
<!DOCTYPE svg PUBLIC "-//W3C//DTD SVG 1.1//EN" "http://www.w3.org/Graphics/SVG/1.1/DTD/svg11.dtd">
<!-- Generated by graphviz version 2.40.1 (20161225.0304)
 -->
<!-- Title: %0 Pages: 1 -->
<svg width="601pt" height="256pt" viewBox="0.00 0.00 600.96 256.00" xmlns="http://www.w3.org/2000/svg" xmlns:xlink="http://www.w3.org/1999/xlink">
<g id="graph0" class="graph" transform="scale(1 1) rotate(0) translate(4 252)">
<title>%0</title>
<polygon fill="#ffffff" stroke="transparent" points="-4,4 -4,-252 596.9594,-252 596.9594,4 -4,4"/>
<!-- node_n -->
<g id="node1" class="node">
<title>node_n</title>
<polygon fill="none" stroke="#000000" points="8,-220 8,-244 68,-244 68,-220 8,-220"/>
<text text-anchor="start" x="17.3927" y="-227.4" font-family="Times,serif" font-size="14.00" fill="#000000">key_00</text>
<polygon fill="none" stroke="#000000" points="8,-196 8,-220 68,-220 68,-196 8,-196"/>
<text text-anchor="start" x="17.3927" y="-203.4" font-family="Times,serif" font-size="14.00" fill="#000000">key_01</text>
<polygon fill="none" stroke="#000000" points="8,-172 8,-196 68,-196 68,-172 8,-172"/>
<text text-anchor="start" x="17.3927" y="-179.4" font-family="Times,serif" font-size="14.00" fill="#000000">key_02</text>
<polygon fill="none" stroke="#000000" points="8,-148 8,-172 68,-172 68,-148 8,-148"/>
<text text-anchor="start" x="17.3927" y="-155.4" font-family="Times,serif" font-size="14.00" fill="#000000">key_03</text>
<polygon fill="none" stroke="#000000" points="8,-124 8,-148 68,-148 68,-124 8,-124"/>
<text text-anchor="start" x="17.3927" y="-131.4" font-family="Times,serif" font-size="14.00" fill="#000000">key_04</text>
<polygon fill="none" stroke="#000000" points="8,-100 8,-124 68,-124 68,-100 8,-100"/>
<text text-anchor="start" x="17.3927" y="-107.4" font-family="Times,serif" font-size="14.00" fill="#000000">key_05</text>
<polygon fill="none" stroke="#000000" points="8,-76 8,-100 68,-100 68,-76 8,-76"/>
<text text-anchor="start" x="17.3927" y="-83.4" font-family="Times,serif" font-size="14.00" fill="#000000">key_06</text>
<polygon fill="none" stroke="#000000" points="8,-52 8,-76 68,-76 68,-52 8,-52"/>
<text text-anchor="start" x="17.3927" y="-59.4" font-family="Times,serif" font-size="14.00" fill="#000000">key_07</text>
<polygon fill="none" stroke="#000000" points="8,-28 8,-52 68,-52 68,-28 8,-28"/>
<text text-anchor="start" x="17.3927" y="-35.4" font-family="Times,serif" font-size="14.00" fill="#000000">key_08</text>
<polygon fill="none" stroke="#000000" points="8,-4 8,-28 68,-28 68,-4 8,-4"/>
<text text-anchor="start" x="25.75" y="-11.4" font-family="Times,serif" font-size="14.00" fill="#000000">... ...</text>
</g>
<!-- mytab -->
<g id="node2" class="node">
<title>mytab</title>
<polygon fill="none" stroke="#000000" points="134,-220 134,-244 174,-244 174,-220 134,-220"/>
<text text-anchor="start" x="140" y="-227.4" font-family="Times,serif" font-size="14.00" fill="#000000">0000</text>
<polygon fill="none" stroke="#000000" points="174,-220 174,-244 254,-244 254,-220 174,-220"/>
<polygon fill="none" stroke="#000000" points="134,-196 134,-220 174,-220 174,-196 134,-196"/>
<text text-anchor="start" x="140" y="-203.4" font-family="Times,serif" font-size="14.00" fill="#000000">0001</text>
<polygon fill="none" stroke="#000000" points="174,-196 174,-220 254,-220 254,-196 174,-196"/>
<text text-anchor="start" x="191.8401" y="-203.4" font-family="Times,serif" font-size="14.00" fill="#000000">data_04</text>
<polygon fill="none" stroke="#000000" points="134,-172 134,-196 174,-196 174,-172 134,-172"/>
<text text-anchor="start" x="140" y="-179.4" font-family="Times,serif" font-size="14.00" fill="#000000">0002</text>
<polygon fill="none" stroke="#000000" points="174,-172 174,-196 254,-196 254,-172 174,-172"/>
<polygon fill="none" stroke="#000000" points="134,-148 134,-172 174,-172 174,-148 134,-148"/>
<text text-anchor="start" x="140" y="-155.4" font-family="Times,serif" font-size="14.00" fill="#000000">0003</text>
<polygon fill="none" stroke="#000000" points="174,-148 174,-172 254,-172 254,-148 174,-148"/>
<text text-anchor="start" x="191.8401" y="-155.4" font-family="Times,serif" font-size="14.00" fill="#000000">data_00</text>
<polygon fill="none" stroke="#000000" points="134,-124 134,-148 174,-148 174,-124 134,-124"/>
<text text-anchor="start" x="140" y="-131.4" font-family="Times,serif" font-size="14.00" fill="#000000">0004</text>
<polygon fill="none" stroke="#000000" points="174,-124 174,-148 254,-148 254,-124 174,-124"/>
<polygon fill="none" stroke="#000000" points="134,-100 134,-124 174,-124 174,-100 134,-100"/>
<text text-anchor="start" x="140" y="-107.4" font-family="Times,serif" font-size="14.00" fill="#000000">0005</text>
<polygon fill="none" stroke="#000000" points="174,-100 174,-124 254,-124 254,-100 174,-100"/>
<polygon fill="none" stroke="#000000" points="134,-76 134,-100 174,-100 174,-76 134,-76"/>
<text text-anchor="start" x="140" y="-83.4" font-family="Times,serif" font-size="14.00" fill="#000000">0006</text>
<polygon fill="none" stroke="#000000" points="174,-76 174,-100 254,-100 254,-76 174,-76"/>
<text text-anchor="start" x="191.8401" y="-83.4" font-family="Times,serif" font-size="14.00" fill="#000000">data_02</text>
<polygon fill="none" stroke="#000000" points="134,-52 134,-76 174,-76 174,-52 134,-52"/>
<text text-anchor="start" x="140" y="-59.4" font-family="Times,serif" font-size="14.00" fill="#000000">0007</text>
<polygon fill="none" stroke="#000000" points="174,-52 174,-76 254,-76 254,-52 174,-52"/>
<polygon fill="none" stroke="#000000" points="134,-28 134,-52 174,-52 174,-28 134,-28"/>
<text text-anchor="start" x="140" y="-35.4" font-family="Times,serif" font-size="14.00" fill="#000000">0008</text>
<polygon fill="none" stroke="#000000" points="174,-28 174,-52 254,-52 254,-28 174,-28"/>
<polygon fill="none" stroke="#000000" points="134,-4 134,-28 174,-28 174,-4 134,-4"/>
<text text-anchor="start" x="141.75" y="-11.4" font-family="Times,serif" font-size="14.00" fill="#000000">... ...</text>
<polygon fill="none" stroke="#000000" points="174,-4 174,-28 254,-28 254,-4 174,-4"/>
<text text-anchor="start" x="201.75" y="-11.4" font-family="Times,serif" font-size="14.00" fill="#000000">... ...</text>
</g>
<!-- node_n&#45;&gt;mytab -->
<g id="edge3" class="edge">
<title>node_n:k0-&gt;mytab:x3</title>
<path fill="none" stroke="#000000" d="M68,-232C107.5101,-232 93.8125,-172.3563 123.7618,-161.6391"/>
<polygon fill="#000000" stroke="#000000" points="134,-160 124.8372,-166.0243 129.0629,-160.7905 124.1257,-161.5809 124.1257,-161.5809 124.1257,-161.5809 129.0629,-160.7905 123.4143,-157.1375 134,-160 134,-160"/>
</g>
<!-- node_n&#45;&gt;mytab -->
<g id="edge4" class="edge">
<title>node_n:k1-&gt;mytab:x3</title>
<path fill="none" stroke="#000000" d="M68,-208C100.4452,-208 98.633,-169.5911 123.852,-161.4892"/>
<polygon fill="#000000" stroke="#000000" points="134,-160 124.7594,-165.9043 129.053,-160.726 124.106,-161.452 124.106,-161.452 124.106,-161.452 129.053,-160.726 123.4526,-156.9997 134,-160 134,-160"/>
</g>
<!-- node_n&#45;&gt;mytab -->
<g id="edge5" class="edge">
<title>node_n:k6-&gt;mytab:x3</title>
<path fill="none" stroke="#000000" d="M68,-88C107.5101,-88 93.8125,-147.6437 123.7618,-158.3609"/>
<polygon fill="#000000" stroke="#000000" points="134,-160 123.4143,-162.8625 129.0629,-159.2095 124.1257,-158.4191 124.1257,-158.4191 124.1257,-158.4191 129.0629,-159.2095 124.8372,-153.9757 134,-160 134,-160"/>
</g>
<!-- node_n&#45;&gt;mytab -->
<g id="edge6" class="edge">
<title>node_n:k2-&gt;mytab:x6</title>
<path fill="none" stroke="#000000" d="M68,-184C115.9345,-184 87.3051,-101.7212 123.8747,-89.5079"/>
<polygon fill="#000000" stroke="#000000" points="134,-88 124.772,-93.924 129.0545,-88.7366 124.1091,-89.4731 124.1091,-89.4731 124.1091,-89.4731 129.0545,-88.7366 123.4462,-85.0222 134,-88 134,-88"/>
</g>
<!-- node_n&#45;&gt;mytab -->
<g id="edge7" class="edge">
<title>node_n:k4-&gt;mytab:x1</title>
<path fill="none" stroke="#000000" d="M68,-136C107.5101,-136 93.8125,-195.6437 123.7618,-206.3609"/>
<polygon fill="#000000" stroke="#000000" points="134,-208 123.4143,-210.8625 129.0629,-207.2095 124.1257,-206.4191 124.1257,-206.4191 124.1257,-206.4191 129.0629,-207.2095 124.8372,-201.9757 134,-208 134,-208"/>
</g>
<!-- node_n&#45;&gt;mytab -->
<g id="edge8" class="edge">
<title>node_n:k7-&gt;mytab:x3</title>
<path fill="none" stroke="#000000" d="M68,-64C115.9345,-64 87.3051,-146.2788 123.8747,-158.4921"/>
<polygon fill="#000000" stroke="#000000" points="134,-160 123.4462,-162.9778 129.0545,-159.2634 124.1091,-158.5269 124.1091,-158.5269 124.1091,-158.5269 129.0545,-159.2634 124.772,-154.076 134,-160 134,-160"/>
</g>
<!-- node_n&#45;&gt;mytab -->
<g id="edge9" class="edge">
<title>node_n:k8-&gt;mytab:x1</title>
<path fill="none" stroke="#000000" d="M68,-40C144.4615,-40 62.2484,-192.6191 123.8342,-206.9272"/>
<polygon fill="#000000" stroke="#000000" points="134,-208 123.5829,-211.4256 129.0276,-207.4752 124.0552,-206.9504 124.0552,-206.9504 124.0552,-206.9504 129.0276,-207.4752 124.5275,-202.4753 134,-208 134,-208"/>
</g>
<!-- node_n&#45;&gt;mytab -->
<!-- data_08 -->
<g id="node3" class="node">
<title>data_08</title>
<polygon fill="none" stroke="#000000" points="372.4806,-220.3008 311.8392,-220.3008 311.8392,-195.6992 372.4806,-195.6992 372.4806,-220.3008"/>
<text text-anchor="middle" x="342.1599" y="-203.8" font-family="Times,serif" font-size="14.00" fill="#000000">data_08</text>
</g>
<!-- mytab&#45;&gt;data_08 -->
<g id="edge11" class="edge">
<title>mytab:p1-&gt;data_08</title>
<path fill="none" stroke="#000000" d="M254,-208C269.669,-208 286.9046,-208 301.948,-208"/>
<polygon fill="#000000" stroke="#000000" points="311.9662,-208 301.9662,-212.5001 306.9662,-208 301.9662,-208.0001 301.9662,-208.0001 301.9662,-208.0001 306.9662,-208 301.9661,-203.5001 311.9662,-208 311.9662,-208"/>
</g>
<!-- data_01 -->
<g id="node4" class="node">
<title>data_01</title>
<polygon fill="none" stroke="#000000" points="372.4806,-172.3008 311.8392,-172.3008 311.8392,-147.6992 372.4806,-147.6992 372.4806,-172.3008"/>
<text text-anchor="middle" x="342.1599" y="-155.8" font-family="Times,serif" font-size="14.00" fill="#000000">data_01</text>
</g>
<!-- mytab&#45;&gt;data_01 -->
<g id="edge12" class="edge">
<title>mytab:p3-&gt;data_01</title>
<path fill="none" stroke="#000000" d="M254,-160C269.669,-160 286.9046,-160 301.948,-160"/>
<polygon fill="#000000" stroke="#000000" points="311.9662,-160 301.9662,-164.5001 306.9662,-160 301.9662,-160.0001 301.9662,-160.0001 301.9662,-160.0001 306.9662,-160 301.9661,-155.5001 311.9662,-160 311.9662,-160"/>
</g>
<!-- data_06 -->
<g id="node5" class="node">
<title>data_06</title>
<polygon fill="none" stroke="#000000" points="482.8004,-172.3008 422.159,-172.3008 422.159,-147.6992 482.8004,-147.6992 482.8004,-172.3008"/>
<text text-anchor="middle" x="452.4797" y="-155.8" font-family="Times,serif" font-size="14.00" fill="#000000">data_06</text>
</g>
<!-- data_01&#45;&gt;data_06 -->
<g id="edge1" class="edge">
<title>data_01-&gt;data_06</title>
<path fill="none" stroke="#000000" d="M372.5973,-160C384.7758,-160 398.9815,-160 412.0084,-160"/>
<polygon fill="#000000" stroke="#000000" points="422.1416,-160 412.1417,-164.5001 417.1416,-160 412.1416,-160.0001 412.1416,-160.0001 412.1416,-160.0001 417.1416,-160 412.1416,-155.5001 422.1416,-160 422.1416,-160"/>
</g>
<!-- data_07 -->
<g id="node6" class="node">
<title>data_07</title>
<polygon fill="none" stroke="#000000" points="593.1202,-172.3008 532.4788,-172.3008 532.4788,-147.6992 593.1202,-147.6992 593.1202,-172.3008"/>
<text text-anchor="middle" x="562.7995" y="-155.8" font-family="Times,serif" font-size="14.00" fill="#000000">data_07</text>
</g>
<!-- data_06&#45;&gt;data_07 -->
<g id="edge2" class="edge">
<title>data_06-&gt;data_07</title>
<path fill="none" stroke="#000000" d="M482.9171,-160C495.0956,-160 509.3013,-160 522.3282,-160"/>
<polygon fill="#000000" stroke="#000000" points="532.4614,-160 522.4615,-164.5001 527.4614,-160 522.4614,-160.0001 522.4614,-160.0001 522.4614,-160.0001 527.4614,-160 522.4614,-155.5001 532.4614,-160 532.4614,-160"/>
</g>
</g>
</svg>