<?xml version="1.0" encoding="UTF-8" standalone="no"?>
<!DOCTYPE svg PUBLIC "-//W3C//DTD SVG 1.1//EN" "http://www.w3.org/Graphics/SVG/1.1/DTD/svg11.dtd">
<!-- Generated by graphviz version 2.40.1 (20161225.0304)
 -->
<!-- Title: %0 Pages: 1 -->
<svg width="404pt" height="256pt" viewBox="0.00 0.00 404.00 256.00" xmlns="http://www.w3.org/2000/svg" xmlns:xlink="http://www.w3.org/1999/xlink">
<g id="graph0" class="graph" transform="scale(1 1) rotate(0) translate(4 252)">
<title>%0</title>
<polygon fill="#ffffff" stroke="transparent" points="-4,4 -4,-252 400,-252 400,4 -4,4"/>
<!-- node_n -->
<g id="node1" class="node">
<title>node_n</title>
<polygon fill="none" stroke="#000000" points="8,-220 8,-244 68,-244 68,-220 8,-220"/>
<text text-anchor="start" x="17.3927" y="-227.4" font-family="Times,serif" font-size="14.00" fill="#000000">key_00</text>
<polygon fill="none" stroke="#000000" points="8,-196 8,-220 68,-220 68,-196 8,-196"/>
<text text-anchor="start" x="17.3927" y="-203.4" font-family="Times,serif" font-size="14.00" fill="#000000">key_01</text>
<polygon fill="none" stroke="#000000" points="8,-172 8,-196 68,-196 68,-172 8,-172"/>
<text text-anchor="start" x="17.3927" y="-179.4" font-family="Times,serif" font-size="14.00" fill="#000000">key_02</text>
<polygon fill="none" stroke="#000000" points="8,-148 8,-172 68,-172 68,-148 8,-148"/>
<text text-anchor="start" x="17.3927" y="-155.4" font-family="Times,serif" font-size="14.00" fill="#000000">key_03</text>
<polygon fill="none" stroke="#000000" points="8,-124 8,-148 68,-148 68,-124 8,-124"/>
<text text-anchor="start" x="17.3927" y="-131.4" font-family="Times,serif" font-size="14.00" fill="#000000">key_04</text>
<polygon fill="none" stroke="#000000" points="8,-100 8,-124 68,-124 68,-100 8,-100"/>
<text text-anchor="start" x="17.3927" y="-107.4" font-family="Times,serif" font-size="14.00" fill="#000000">key_05</text>
<polygon fill="none" stroke="#000000" points="8,-76 8,-100 68,-100 68,-76 8,-76"/>
<text text-anchor="start" x="17.3927" y="-83.4" font-family="Times,serif" font-size="14.00" fill="#000000">key_06</text>
<polygon fill="none" stroke="#000000" points="8,-52 8,-76 68,-76 68,-52 8,-52"/>
<text text-anchor="start" x="17.3927" y="-59.4" font-family="Times,serif" font-size="14.00" fill="#000000">key_07</text>
<polygon fill="none" stroke="#000000" points="8,-28 8,-52 68,-52 68,-28 8,-28"/>
<text text-anchor="start" x="17.3927" y="-35.4" font-family="Times,serif" font-size="14.00" fill="#000000">key_08</text>
<polygon fill="none" stroke="#000000" points="8,-4 8,-28 68,-28 68,-4 8,-4"/>
<text text-anchor="start" x="25.75" y="-11.4" font-family="Times,serif" font-size="14.00" fill="#000000">... ...</text>
</g>
<!-- mytab -->
<g id="node2" class="node">
<title>mytab</title>
<polygon fill="none" stroke="#000000" points="228,-220 228,-244 288,-244 288,-220 228,-220"/>
<text text-anchor="start" x="244" y="-227.4" font-family="Times,serif" font-size="14.00" fill="#000000">0000</text>
<polygon fill="none" stroke="#000000" points="288,-220 288,-244 388,-244 388,-220 288,-220"/>
<polygon fill="none" stroke="#000000" points="228,-196 228,-220 288,-220 288,-196 228,-196"/>
<text text-anchor="start" x="244" y="-203.4" font-family="Times,serif" font-size="14.00" fill="#000000">0001</text>
<polygon fill="none" stroke="#000000" points="288,-196 288,-220 388,-220 388,-196 288,-196"/>
<text text-anchor="start" x="315.8401" y="-203.4" font-family="Times,serif" font-size="14.00" fill="#000000">data_04</text>
<polygon fill="none" stroke="#000000" points="228,-172 228,-196 288,-196 288,-172 228,-172"/>
<text text-anchor="start" x="244" y="-179.4" font-family="Times,serif" font-size="14.00" fill="#000000">0002</text>
<polygon fill="none" stroke="#000000" points="288,-172 288,-196 388,-196 388,-172 288,-172"/>
<text text-anchor="start" x="315.8401" y="-179.4" font-family="Times,serif" font-size="14.00" fill="#000000">data_08</text>
<polygon fill="none" stroke="#000000" points="228,-148 228,-172 288,-172 288,-148 228,-148"/>
<text text-anchor="start" x="244" y="-155.4" font-family="Times,serif" font-size="14.00" fill="#000000">0003</text>
<polygon fill="none" stroke="#000000" points="288,-148 288,-172 388,-172 388,-148 288,-148"/>
<text text-anchor="start" x="315.8401" y="-155.4" font-family="Times,serif" font-size="14.00" fill="#000000">data_00</text>
<polygon fill="none" stroke="#000000" points="228,-124 228,-148 288,-148 288,-124 228,-124"/>
<text text-anchor="start" x="244" y="-131.4" font-family="Times,serif" font-size="14.00" fill="#000000">0004</text>
<polygon fill="none" stroke="#000000" points="288,-124 288,-148 388,-148 388,-124 288,-124"/>
<text text-anchor="start" x="315.8401" y="-131.4" font-family="Times,serif" font-size="14.00" fill="#000000">data_01</text>
<polygon fill="none" stroke="#000000" points="228,-100 228,-124 288,-124 288,-100 228,-100"/>
<text text-anchor="start" x="244" y="-107.4" font-family="Times,serif" font-size="14.00" fill="#000000">0005</text>
<polygon fill="none" stroke="#000000" points="288,-100 288,-124 388,-124 388,-100 288,-100"/>
<text text-anchor="start" x="315.8401" y="-107.4" font-family="Times,serif" font-size="14.00" fill="#000000">data_06</text>
<polygon fill="none" stroke="#000000" points="228,-76 228,-100 288,-100 288,-76 228,-76"/>
<text text-anchor="start" x="244" y="-83.4" font-family="Times,serif" font-size="14.00" fill="#000000">0006</text>
<polygon fill="none" stroke="#000000" points="288,-76 288,-100 388,-100 388,-76 288,-76"/>
<text text-anchor="start" x="315.8401" y="-83.4" font-family="Times,serif" font-size="14.00" fill="#000000">data_02</text>
<polygon fill="none" stroke="#000000" points="228,-52 228,-76 288,-76 288,-52 228,-52"/>
<text text-anchor="start" x="244" y="-59.4" font-family="Times,serif" font-size="14.00" fill="#000000">0007</text>
<polygon fill="none" stroke="#000000" points="288,-52 288,-76 388,-76 388,-52 288,-52"/>
<text text-anchor="start" x="315.8401" y="-59.4" font-family="Times,serif" font-size="14.00" fill="#000000">data_07</text>
<polygon fill="none" stroke="#000000" points="228,-28 228,-52 288,-52 288,-28 228,-28"/>
<text text-anchor="start" x="244" y="-35.4" font-family="Times,serif" font-size="14.00" fill="#000000">0008</text>
<polygon fill="none" stroke="#000000" points="288,-28 288,-52 388,-52 388,-28 288,-28"/>
<polygon fill="none" stroke="#000000" points="228,-4 228,-28 288,-28 288,-4 228,-4"/>
<text text-anchor="start" x="245.75" y="-11.4" font-family="Times,serif" font-size="14.00" fill="#000000">... ...</text>
<polygon fill="none" stroke="#000000" points="288,-4 288,-28 388,-28 388,-4 288,-4"/>
<text text-anchor="start" x="325.75" y="-11.4" font-family="Times,serif" font-size="14.00" fill="#000000">... ...</text>
</g>
<!-- node_n&#45;&gt;mytab -->
<!-- node_n&#45;&gt;mytab -->
<g id="edge2" class="edge">
<title>node_n:k0-&gt;mytab:x3</title>
<path fill="none" stroke="#000000" d="M68,-232C142.4764,-232 149.5083,-166.3235 217.9253,-160.4228"/>
<polygon fill="#000000" stroke="#000000" points="228,-160 218.1975,-164.9155 223.0044,-160.2097 218.0088,-160.4194 218.0088,-160.4194 218.0088,-160.4194 223.0044,-160.2097 217.8201,-155.9234 228,-160 228,-160"/>
</g>
<!-- node_n&#45;&gt;mytab -->
<g id="edge3" class="edge">
<title>node_n:k1-&gt;mytab:x3</title>
<path fill="none" stroke="#000000" d="M68,-208C138.7621,-208 152.5404,-164.3945 217.9603,-160.3065"/>
<polygon fill="#000000" stroke="#000000" points="228,-160 218.142,-164.8032 223.0023,-160.1526 218.0047,-160.3053 218.0047,-160.3053 218.0047,-160.3053 223.0023,-160.1526 217.8673,-155.8074 228,-160 228,-160"/>
</g>
<!-- node_n&#45;&gt;mytab -->
<g id="edge4" class="edge">
<title>node_n:k6-&gt;mytab:x3</title>
<path fill="none" stroke="#000000" d="M68,-88C142.4764,-88 149.5083,-153.6765 217.9253,-159.5772"/>
<polygon fill="#000000" stroke="#000000" points="228,-160 217.8201,-164.0766 223.0044,-159.7903 218.0088,-159.5806 218.0088,-159.5806 218.0088,-159.5806 223.0044,-159.7903 218.1975,-155.0845 228,-160 228,-160"/>
</g>
<!-- node_n&#45;&gt;mytab -->
<g id="edge5" class="edge">
<title>node_n:k2-&gt;mytab:x6</title>
<path fill="none" stroke="#000000" d="M68,-184C147.3657,-184 145.4104,-96.0728 217.7876,-88.5165"/>
<polygon fill="#000000" stroke="#000000" points="228,-88 218.2401,-92.9995 223.0064,-88.2526 218.0128,-88.5052 218.0128,-88.5052 218.0128,-88.5052 223.0064,-88.2526 217.7854,-84.011 228,-88 228,-88"/>
</g>
<!-- node_n&#45;&gt;mytab -->
<g id="edge6" class="edge">
<title>node_n:k4-&gt;mytab:x1</title>
<path fill="none" stroke="#000000" d="M68,-136C142.4764,-136 149.5083,-201.6765 217.9253,-207.5772"/>
<polygon fill="#000000" stroke="#000000" points="228,-208 217.8201,-212.0766 223.0044,-207.7903 218.0088,-207.5806 218.0088,-207.5806 218.0088,-207.5806 223.0044,-207.7903 218.1975,-203.0845 228,-208 228,-208"/>
</g>
<!-- node_n&#45;&gt;mytab -->
<g id="edge7" class="edge">
<title>node_n:k7-&gt;mytab:x3</title>
<path fill="none" stroke="#000000" d="M68,-64C147.3657,-64 145.4104,-151.9272 217.7876,-159.4835"/>
<polygon fill="#000000" stroke="#000000" points="228,-160 217.7854,-163.989 223.0064,-159.7474 218.0128,-159.4948 218.0128,-159.4948 218.0128,-159.4948 223.0064,-159.7474 218.2401,-155.0005 228,-160 228,-160"/>
</g>
<!-- node_n&#45;&gt;mytab -->
<g id="edge8" class="edge">
<title>node_n:k8-&gt;mytab:x1</title>
<path fill="none" stroke="#000000" d="M68,-40C167.5868,-40 127.8742,-196.7119 217.9385,-207.4246"/>
<polygon fill="#000000" stroke="#000000" points="228,-208 217.7593,-211.9216 223.0082,-207.7145 218.0163,-207.429 218.0163,-207.429 218.0163,-207.429 223.0082,-207.7145 218.2733,-202.9363 228,-208 228,-208"/>
</g>
</g>
</svg>