<?xml version="1.0" encoding="UTF-8" standalone="no"?>
<!DOCTYPE svg PUBLIC "-//W3C//DTD SVG 1.1//EN" "http://www.w3.org/Graphics/SVG/1.1/DTD/svg11.dtd">
<!-- Generated by graphviz version 2.40.1 (20161225.0304)
 -->
<!-- Title: G Pages: 1 -->
<svg width="546pt" height="404pt" viewBox="0.00 0.00 546.00 404.00" xmlns="http://www.w3.org/2000/svg" xmlns:xlink="http://www.w3.org/1999/xlink">
<g id="graph0" class="graph" transform="scale(1 1) rotate(0) translate(4 400)">
<title>G</title>
<polygon fill="#ffffff" stroke="transparent" points="-4,4 -4,-400 542,-400 542,4 -4,4"/>
<!-- 50 -->
<g id="node1" class="node">
<title>50</title>
<ellipse fill="#000000" stroke="#000000" cx="129" cy="-378" rx="18" ry="18"/>
<text text-anchor="middle" x="129" y="-373.8" font-family="Times,serif" font-size="14.00" fill="#ffffff">50</text>
</g>
<!-- 33 -->
<g id="node2" class="node">
<title>33</title>
<ellipse fill="#000000" stroke="#000000" cx="59" cy="-306" rx="18" ry="18"/>
<text text-anchor="middle" x="59" y="-301.8" font-family="Times,serif" font-size="14.00" fill="#ffffff">33</text>
</g>
<!-- 50&#45;&gt;33 -->
<g id="edge1" class="edge">
<title>50-&gt;33</title>
<path fill="none" stroke="#000000" d="M116.1609,-364.7941C105.7015,-354.0358 90.7565,-338.6639 78.7712,-326.3361"/>
<polygon fill="#000000" stroke="#000000" points="71.7577,-319.1222 81.955,-323.1553 75.2431,-322.7072 78.7285,-326.2922 78.7285,-326.2922 78.7285,-326.2922 75.2431,-322.7072 75.502,-329.429 71.7577,-319.1222 71.7577,-319.1222"/>
</g>
<!-- n50 -->
<!-- 50&#45;&gt;n50 -->
<!-- 556 -->
<g id="node4" class="node">
<title>556</title>
<ellipse fill="#aa0000" stroke="#000000" cx="199" cy="-306" rx="18" ry="18"/>
<text text-anchor="middle" x="199" y="-301.8" font-family="Times,serif" font-size="14.00" fill="#ffffff">556</text>
</g>
<!-- 50&#45;&gt;556 -->
<g id="edge2" class="edge">
<title>50-&gt;556</title>
<path fill="none" stroke="#000000" d="M141.8391,-364.7941C152.2985,-354.0358 167.2435,-338.6639 179.2288,-326.3361"/>
<polygon fill="#000000" stroke="#000000" points="186.2423,-319.1222 182.498,-329.429 182.7569,-322.7072 179.2715,-326.2922 179.2715,-326.2922 179.2715,-326.2922 182.7569,-322.7072 176.045,-323.1553 186.2423,-319.1222 186.2423,-319.1222"/>
</g>
<!-- 3 -->
<g id="node5" class="node">
<title>3</title>
<ellipse fill="#000000" stroke="#000000" cx="18" cy="-234" rx="18" ry="18"/>
<text text-anchor="middle" x="18" y="-229.8" font-family="Times,serif" font-size="14.00" fill="#ffffff">3</text>
</g>
<!-- 33&#45;&gt;3 -->
<g id="edge3" class="edge">
<title>33-&gt;3</title>
<path fill="none" stroke="#000000" d="M49.9008,-290.0209C44.6988,-280.8857 38.0608,-269.2286 32.1884,-258.9162"/>
<polygon fill="#000000" stroke="#000000" points="27.0738,-249.9345 35.9327,-256.3975 29.548,-254.2794 32.0222,-258.6243 32.0222,-258.6243 32.0222,-258.6243 29.548,-254.2794 28.1118,-260.8511 27.0738,-249.9345 27.0738,-249.9345"/>
</g>
<!-- n33 -->
<!-- 33&#45;&gt;n33 -->
<!-- 45 -->
<g id="node7" class="node">
<title>45</title>
<ellipse fill="#000000" stroke="#000000" cx="100" cy="-234" rx="18" ry="18"/>
<text text-anchor="middle" x="100" y="-229.8" font-family="Times,serif" font-size="14.00" fill="#ffffff">45</text>
</g>
<!-- 33&#45;&gt;45 -->
<g id="edge4" class="edge">
<title>33-&gt;45</title>
<path fill="none" stroke="#000000" d="M68.0992,-290.0209C73.3012,-280.8857 79.9392,-269.2286 85.8116,-258.9162"/>
<polygon fill="#000000" stroke="#000000" points="90.9262,-249.9345 89.8882,-260.8511 88.452,-254.2794 85.9778,-258.6243 85.9778,-258.6243 85.9778,-258.6243 88.452,-254.2794 82.0673,-256.3975 90.9262,-249.9345 90.9262,-249.9345"/>
</g>
<!-- 67 -->
<g id="node8" class="node">
<title>67</title>
<ellipse fill="#000000" stroke="#000000" cx="158" cy="-234" rx="18" ry="18"/>
<text text-anchor="middle" x="158" y="-229.8" font-family="Times,serif" font-size="14.00" fill="#ffffff">67</text>
</g>
<!-- 556&#45;&gt;67 -->
<g id="edge5" class="edge">
<title>556-&gt;67</title>
<path fill="none" stroke="#000000" d="M189.9008,-290.0209C184.6988,-280.8857 178.0608,-269.2286 172.1884,-258.9162"/>
<polygon fill="#000000" stroke="#000000" points="167.0738,-249.9345 175.9327,-256.3975 169.548,-254.2794 172.0222,-258.6243 172.0222,-258.6243 172.0222,-258.6243 169.548,-254.2794 168.1118,-260.8511 167.0738,-249.9345 167.0738,-249.9345"/>
</g>
<!-- n556 -->
<!-- 556&#45;&gt;n556 -->
<!-- 2423 -->
<g id="node10" class="node">
<title>2423</title>
<ellipse fill="#000000" stroke="#000000" cx="380" cy="-234" rx="18" ry="18"/>
<text text-anchor="middle" x="380" y="-229.8" font-family="Times,serif" font-size="14.00" fill="#ffffff">2423</text>
</g>
<!-- 556&#45;&gt;2423 -->
<g id="edge6" class="edge">
<title>556-&gt;2423</title>
<path fill="none" stroke="#000000" d="M216.028,-299.2264C247.7761,-286.5974 316.1926,-259.3819 353.8412,-244.4057"/>
<polygon fill="#000000" stroke="#000000" points="363.1491,-240.7031 355.5205,-248.5807 358.5031,-242.5513 353.8572,-244.3994 353.8572,-244.3994 353.8572,-244.3994 358.5031,-242.5513 352.1939,-240.2181 363.1491,-240.7031 363.1491,-240.7031"/>
</g>
<!-- n3 -->
<!-- 3&#45;&gt;n3 -->
<!-- 55 -->
<g id="node11" class="node">
<title>55</title>
<ellipse fill="#aa0000" stroke="#000000" cx="59" cy="-162" rx="18" ry="18"/>
<text text-anchor="middle" x="59" y="-157.8" font-family="Times,serif" font-size="14.00" fill="#ffffff">55</text>
</g>
<!-- 67&#45;&gt;55 -->
<g id="edge7" class="edge">
<title>67-&gt;55</title>
<path fill="none" stroke="#000000" d="M143.3922,-223.3762C127.1606,-211.5713 100.7445,-192.3596 81.7887,-178.5736"/>
<polygon fill="#000000" stroke="#000000" points="73.6677,-172.6674 84.4019,-174.9099 77.7114,-175.6083 81.7551,-178.5492 81.7551,-178.5492 81.7551,-178.5492 77.7114,-175.6083 79.1083,-182.1885 73.6677,-172.6674 73.6677,-172.6674"/>
</g>
<!-- n67 -->
<!-- 67&#45;&gt;n67 -->
<!-- 99 -->
<g id="node13" class="node">
<title>99</title>
<ellipse fill="#aa0000" stroke="#000000" cx="199" cy="-162" rx="18" ry="18"/>
<text text-anchor="middle" x="199" y="-157.8" font-family="Times,serif" font-size="14.00" fill="#ffffff">99</text>
</g>
<!-- 67&#45;&gt;99 -->
<g id="edge8" class="edge">
<title>67-&gt;99</title>
<path fill="none" stroke="#000000" d="M167.0992,-218.0209C172.3012,-208.8857 178.9392,-197.2286 184.8116,-186.9162"/>
<polygon fill="#000000" stroke="#000000" points="189.9262,-177.9345 188.8882,-188.8511 187.452,-182.2794 184.9778,-186.6243 184.9778,-186.6243 184.9778,-186.6243 187.452,-182.2794 181.0673,-184.3975 189.9262,-177.9345 189.9262,-177.9345"/>
</g>
<!-- 2345 -->
<g id="node14" class="node">
<title>2345</title>
<ellipse fill="#aa0000" stroke="#000000" cx="339" cy="-162" rx="18" ry="18"/>
<text text-anchor="middle" x="339" y="-157.8" font-family="Times,serif" font-size="14.00" fill="#ffffff">2345</text>
</g>
<!-- 2423&#45;&gt;2345 -->
<g id="edge9" class="edge">
<title>2423-&gt;2345</title>
<path fill="none" stroke="#000000" d="M370.9008,-218.0209C365.6988,-208.8857 359.0608,-197.2286 353.1884,-186.9162"/>
<polygon fill="#000000" stroke="#000000" points="348.0738,-177.9345 356.9327,-184.3975 350.548,-182.2794 353.0222,-186.6243 353.0222,-186.6243 353.0222,-186.6243 350.548,-182.2794 349.1118,-188.8511 348.0738,-177.9345 348.0738,-177.9345"/>
</g>
<!-- n2423 -->
<!-- 2423&#45;&gt;n2423 -->
<!-- 6666 -->
<g id="node16" class="node">
<title>6666</title>
<ellipse fill="#aa0000" stroke="#000000" cx="479" cy="-162" rx="18" ry="18"/>
<text text-anchor="middle" x="479" y="-157.8" font-family="Times,serif" font-size="14.00" fill="#ffffff">6666</text>
</g>
<!-- 2423&#45;&gt;6666 -->
<g id="edge10" class="edge">
<title>2423-&gt;6666</title>
<path fill="none" stroke="#000000" d="M394.6078,-223.3762C410.8394,-211.5713 437.2555,-192.3596 456.2113,-178.5736"/>
<polygon fill="#000000" stroke="#000000" points="464.3323,-172.6674 458.8917,-182.1885 460.2886,-175.6083 456.2449,-178.5492 456.2449,-178.5492 456.2449,-178.5492 460.2886,-175.6083 453.5981,-174.9099 464.3323,-172.6674 464.3323,-172.6674"/>
</g>
<!-- 51 -->
<g id="node17" class="node">
<title>51</title>
<ellipse fill="#000000" stroke="#000000" cx="18" cy="-90" rx="18" ry="18"/>
<text text-anchor="middle" x="18" y="-85.8" font-family="Times,serif" font-size="14.00" fill="#ffffff">51</text>
</g>
<!-- 55&#45;&gt;51 -->
<g id="edge11" class="edge">
<title>55-&gt;51</title>
<path fill="none" stroke="#000000" d="M49.9008,-146.0209C44.6988,-136.8857 38.0608,-125.2286 32.1884,-114.9162"/>
<polygon fill="#000000" stroke="#000000" points="27.0738,-105.9345 35.9327,-112.3975 29.548,-110.2794 32.0222,-114.6243 32.0222,-114.6243 32.0222,-114.6243 29.548,-110.2794 28.1118,-116.8511 27.0738,-105.9345 27.0738,-105.9345"/>
</g>
<!-- n55 -->
<!-- 55&#45;&gt;n55 -->
<!-- 56 -->
<g id="node19" class="node">
<title>56</title>
<ellipse fill="#000000" stroke="#000000" cx="100" cy="-90" rx="18" ry="18"/>
<text text-anchor="middle" x="100" y="-85.8" font-family="Times,serif" font-size="14.00" fill="#ffffff">56</text>
</g>
<!-- 55&#45;&gt;56 -->
<g id="edge12" class="edge">
<title>55-&gt;56</title>
<path fill="none" stroke="#000000" d="M68.0992,-146.0209C73.3012,-136.8857 79.9392,-125.2286 85.8116,-114.9162"/>
<polygon fill="#000000" stroke="#000000" points="90.9262,-105.9345 89.8882,-116.8511 88.452,-110.2794 85.9778,-114.6243 85.9778,-114.6243 85.9778,-114.6243 88.452,-110.2794 82.0673,-112.3975 90.9262,-105.9345 90.9262,-105.9345"/>
</g>
<!-- 98 -->
<g id="node20" class="node">
<title>98</title>
<ellipse fill="#000000" stroke="#000000" cx="158" cy="-90" rx="18" ry="18"/>
<text text-anchor="middle" x="158" y="-85.8" font-family="Times,serif" font-size="14.00" fill="#ffffff">98</text>
</g>
<!-- 99&#45;&gt;98 -->
<g id="edge13" class="edge">
<title>99-&gt;98</title>
<path fill="none" stroke="#000000" d="M189.9008,-146.0209C184.6988,-136.8857 178.0608,-125.2286 172.1884,-114.9162"/>
<polygon fill="#000000" stroke="#000000" points="167.0738,-105.9345 175.9327,-112.3975 169.548,-110.2794 172.0222,-114.6243 172.0222,-114.6243 172.0222,-114.6243 169.548,-110.2794 168.1118,-116.8511 167.0738,-105.9345 167.0738,-105.9345"/>
</g>
<!-- n99 -->
<!-- 99&#45;&gt;n99 -->
<!-- 100 -->
<g id="node22" class="node">
<title>100</title>
<ellipse fill="#000000" stroke="#000000" cx="240" cy="-90" rx="18" ry="18"/>
<text text-anchor="middle" x="240" y="-85.8" font-family="Times,serif" font-size="14.00" fill="#ffffff">100</text>
</g>
<!-- 99&#45;&gt;100 -->
<g id="edge14" class="edge">
<title>99-&gt;100</title>
<path fill="none" stroke="#000000" d="M208.0992,-146.0209C213.3012,-136.8857 219.9392,-125.2286 225.8116,-114.9162"/>
<polygon fill="#000000" stroke="#000000" points="230.9262,-105.9345 229.8882,-116.8511 228.452,-110.2794 225.9778,-114.6243 225.9778,-114.6243 225.9778,-114.6243 228.452,-110.2794 222.0673,-112.3975 230.9262,-105.9345 230.9262,-105.9345"/>
</g>
<!-- 2344 -->
<g id="node23" class="node">
<title>2344</title>
<ellipse fill="#000000" stroke="#000000" cx="298" cy="-90" rx="18" ry="18"/>
<text text-anchor="middle" x="298" y="-85.8" font-family="Times,serif" font-size="14.00" fill="#ffffff">2344</text>
</g>
<!-- 2345&#45;&gt;2344 -->
<g id="edge15" class="edge">
<title>2345-&gt;2344</title>
<path fill="none" stroke="#000000" d="M329.9008,-146.0209C324.6988,-136.8857 318.0608,-125.2286 312.1884,-114.9162"/>
<polygon fill="#000000" stroke="#000000" points="307.0738,-105.9345 315.9327,-112.3975 309.548,-110.2794 312.0222,-114.6243 312.0222,-114.6243 312.0222,-114.6243 309.548,-110.2794 308.1118,-116.8511 307.0738,-105.9345 307.0738,-105.9345"/>
</g>
<!-- n2345 -->
<!-- 2345&#45;&gt;n2345 -->
<!-- 2346 -->
<g id="node25" class="node">
<title>2346</title>
<ellipse fill="#000000" stroke="#000000" cx="380" cy="-90" rx="18" ry="18"/>
<text text-anchor="middle" x="380" y="-85.8" font-family="Times,serif" font-size="14.00" fill="#ffffff">2346</text>
</g>
<!-- 2345&#45;&gt;2346 -->
<g id="edge16" class="edge">
<title>2345-&gt;2346</title>
<path fill="none" stroke="#000000" d="M348.0992,-146.0209C353.3012,-136.8857 359.9392,-125.2286 365.8116,-114.9162"/>
<polygon fill="#000000" stroke="#000000" points="370.9262,-105.9345 369.8882,-116.8511 368.452,-110.2794 365.9778,-114.6243 365.9778,-114.6243 365.9778,-114.6243 368.452,-110.2794 362.0673,-112.3975 370.9262,-105.9345 370.9262,-105.9345"/>
</g>
<!-- 6000 -->
<g id="node26" class="node">
<title>6000</title>
<ellipse fill="#000000" stroke="#000000" cx="438" cy="-90" rx="18" ry="18"/>
<text text-anchor="middle" x="438" y="-85.8" font-family="Times,serif" font-size="14.00" fill="#ffffff">6000</text>
</g>
<!-- 6666&#45;&gt;6000 -->
<g id="edge17" class="edge">
<title>6666-&gt;6000</title>
<path fill="none" stroke="#000000" d="M469.9008,-146.0209C464.6988,-136.8857 458.0608,-125.2286 452.1884,-114.9162"/>
<polygon fill="#000000" stroke="#000000" points="447.0738,-105.9345 455.9327,-112.3975 449.548,-110.2794 452.0222,-114.6243 452.0222,-114.6243 452.0222,-114.6243 449.548,-110.2794 448.1118,-116.8511 447.0738,-105.9345 447.0738,-105.9345"/>
</g>
<!-- n6666 -->
<!-- 6666&#45;&gt;n6666 -->
<!-- 7000 -->
<g id="node28" class="node">
<title>7000</title>
<ellipse fill="#000000" stroke="#000000" cx="520" cy="-90" rx="18" ry="18"/>
<text text-anchor="middle" x="520" y="-85.8" font-family="Times,serif" font-size="14.00" fill="#ffffff">7000</text>
</g>
<!-- 6666&#45;&gt;7000 -->
<g id="edge18" class="edge">
<title>6666-&gt;7000</title>
<path fill="none" stroke="#000000" d="M488.0992,-146.0209C493.3012,-136.8857 499.9392,-125.2286 505.8116,-114.9162"/>
<polygon fill="#000000" stroke="#000000" points="510.9262,-105.9345 509.8882,-116.8511 508.452,-110.2794 505.9778,-114.6243 505.9778,-114.6243 505.9778,-114.6243 508.452,-110.2794 502.0673,-112.3975 510.9262,-105.9345 510.9262,-105.9345"/>
</g>
<!-- n56 -->
<!-- 56&#45;&gt;n56 -->
<!-- 57 -->
<g id="node30" class="node">
<title>57</title>
<ellipse fill="#aa0000" stroke="#000000" cx="141" cy="-18" rx="18" ry="18"/>
<text text-anchor="middle" x="141" y="-13.8" font-family="Times,serif" font-size="14.00" fill="#ffffff">57</text>
</g>
<!-- 56&#45;&gt;57 -->
<g id="edge19" class="edge">
<title>56-&gt;57</title>
<path fill="none" stroke="#000000" d="M109.0992,-74.0209C114.3012,-64.8857 120.9392,-53.2286 126.8116,-42.9162"/>
<polygon fill="#000000" stroke="#000000" points="131.9262,-33.9345 130.8882,-44.8511 129.452,-38.2794 126.9778,-42.6243 126.9778,-42.6243 126.9778,-42.6243 129.452,-38.2794 123.0673,-40.3975 131.9262,-33.9345 131.9262,-33.9345"/>
</g>
<!-- 5000 -->
<g id="node31" class="node">
<title>5000</title>
<ellipse fill="#aa0000" stroke="#000000" cx="397" cy="-18" rx="18" ry="18"/>
<text text-anchor="middle" x="397" y="-13.8" font-family="Times,serif" font-size="14.00" fill="#ffffff">5000</text>
</g>
<!-- 6000&#45;&gt;5000 -->
<g id="edge20" class="edge">
<title>6000-&gt;5000</title>
<path fill="none" stroke="#000000" d="M428.9008,-74.0209C423.6988,-64.8857 417.0608,-53.2286 411.1884,-42.9162"/>
<polygon fill="#000000" stroke="#000000" points="406.0738,-33.9345 414.9327,-40.3975 408.548,-38.2794 411.0222,-42.6243 411.0222,-42.6243 411.0222,-42.6243 408.548,-38.2794 407.1118,-44.8511 406.0738,-33.9345 406.0738,-33.9345"/>
</g>
<!-- n6000 -->
<!-- 6000&#45;&gt;n6000 -->
<!-- 6500 -->
<g id="node33" class="node">
<title>6500</title>
<ellipse fill="#aa0000" stroke="#000000" cx="479" cy="-18" rx="18" ry="18"/>
<text text-anchor="middle" x="479" y="-13.8" font-family="Times,serif" font-size="14.00" fill="#ffffff">6500</text>
</g>
<!-- 6000&#45;&gt;6500 -->
<g id="edge21" class="edge">
<title>6000-&gt;6500</title>
<path fill="none" stroke="#000000" d="M447.0992,-74.0209C452.3012,-64.8857 458.9392,-53.2286 464.8116,-42.9162"/>
<polygon fill="#000000" stroke="#000000" points="469.9262,-33.9345 468.8882,-44.8511 467.452,-38.2794 464.9778,-42.6243 464.9778,-42.6243 464.9778,-42.6243 467.452,-38.2794 461.0673,-40.3975 469.9262,-33.9345 469.9262,-33.9345"/>
</g>
</g>
</svg>