<?xml version="1.0" encoding="UTF-8" standalone="no"?>
<!DOCTYPE svg PUBLIC "-//W3C//DTD SVG 1.1//EN" "http://www.w3.org/Graphics/SVG/1.1/DTD/svg11.dtd">
<!-- Generated by graphviz version 2.40.1 (20161225.0304)
 -->
<!-- Title: %0 Pages: 1 -->
<svg width="510pt" height="116pt" viewBox="0.00 0.00 509.75 116.00" xmlns="http://www.w3.org/2000/svg" xmlns:xlink="http://www.w3.org/1999/xlink">
<g id="graph0" class="graph" transform="scale(1 1) rotate(0) translate(4 112)">
<title>%0</title>
<polygon fill="#ffffff" stroke="transparent" points="-4,4 -4,-112 505.75,-112 505.75,4 -4,4"/>
<!-- 1 -->
<g id="node1" class="node">
<title>1</title>
<polygon fill="none" stroke="#000000" points="228.875,-108 12.875,-108 12.875,-72 228.875,-72 228.875,-108"/>
<text text-anchor="middle" x="120.875" y="-85.8" font-family="Times,serif" font-size="14.00" fill="#000000">按排序二叉树的规则插入元素</text>
</g>
<!-- 2 -->
<g id="node2" class="node">
<title>2</title>
<polygon fill="none" stroke="#000000" points="241.6251,-36 .1249,-36 .1249,0 241.6251,0 241.6251,-36"/>
<text text-anchor="middle" x="120.875" y="-13.8" font-family="Times,serif" font-size="14.00" fill="#000000">调整二叉树使其满足红黑树的性质</text>
</g>
<!-- 1&#45;&gt;2 -->
<g id="edge1" class="edge">
<title>1-&gt;2</title>
<path fill="none" stroke="#000000" d="M120.875,-71.8314C120.875,-64.131 120.875,-54.9743 120.875,-46.4166"/>
<polygon fill="#000000" stroke="#000000" points="120.875,-36.4133 125.3751,-46.4132 120.875,-41.4133 120.8751,-46.4133 120.8751,-46.4133 120.8751,-46.4133 120.875,-41.4133 116.3751,-46.4133 120.875,-36.4133 120.875,-36.4133"/>
</g>
<!-- 3 -->
<g id="node3" class="node">
<title>3</title>
<polygon fill="none" stroke="#000000" points="488.875,-108 272.875,-108 272.875,-72 488.875,-72 488.875,-108"/>
<text text-anchor="middle" x="380.875" y="-85.8" font-family="Times,serif" font-size="14.00" fill="#000000">按排序二叉树的规则删除元素</text>
</g>
<!-- 4 -->
<g id="node4" class="node">
<title>4</title>
<polygon fill="none" stroke="#000000" points="501.6251,-36 260.1249,-36 260.1249,0 501.6251,0 501.6251,-36"/>
<text text-anchor="middle" x="380.875" y="-13.8" font-family="Times,serif" font-size="14.00" fill="#000000">调整二叉树使其满足红黑树的性质</text>
</g>
<!-- 3&#45;&gt;4 -->
<g id="edge2" class="edge">
<title>3-&gt;4</title>
<path fill="none" stroke="#000000" d="M380.875,-71.8314C380.875,-64.131 380.875,-54.9743 380.875,-46.4166"/>
<polygon fill="#000000" stroke="#000000" points="380.875,-36.4133 385.3751,-46.4132 380.875,-41.4133 380.8751,-46.4133 380.8751,-46.4133 380.8751,-46.4133 380.875,-41.4133 376.3751,-46.4133 380.875,-36.4133 380.875,-36.4133"/>
</g>
</g>
</svg>