<?xml version="1.0" encoding="UTF-8" standalone="no"?>
<!DOCTYPE svg PUBLIC "-//W3C//DTD SVG 1.1//EN" "http://www.w3.org/Graphics/SVG/1.1/DTD/svg11.dtd">
<!-- Generated by graphviz version 2.40.1 (20161225.0304)
 -->
<!-- Title: G Pages: 1 -->
<svg width="406pt" height="332pt" viewBox="0.00 0.00 406.00 332.00" xmlns="http://www.w3.org/2000/svg" xmlns:xlink="http://www.w3.org/1999/xlink">
<g id="graph0" class="graph" transform="scale(1 1) rotate(0) translate(4 328)">
<title>G</title>
<polygon fill="#ffffff" stroke="transparent" points="-4,4 -4,-328 402,-328 402,4 -4,4"/>
<!-- 54 -->
<g id="node1" class="node">
<title>54</title>
<ellipse fill="#000000" stroke="#000000" cx="170" cy="-306" rx="18" ry="18"/>
<text text-anchor="middle" x="170" y="-301.8" font-family="Times,serif" font-size="14.00" fill="#ffffff">54</text>
</g>
<!-- 33 -->
<g id="node2" class="node">
<title>33</title>
<ellipse fill="#000000" stroke="#000000" cx="100" cy="-234" rx="18" ry="18"/>
<text text-anchor="middle" x="100" y="-229.8" font-family="Times,serif" font-size="14.00" fill="#ffffff">33</text>
</g>
<!-- 54&#45;&gt;33 -->
<g id="edge1" class="edge">
<title>54-&gt;33</title>
<path fill="none" stroke="#000000" d="M157.1609,-292.7941C146.7015,-282.0358 131.7565,-266.6639 119.7712,-254.3361"/>
<polygon fill="#000000" stroke="#000000" points="112.7577,-247.1222 122.955,-251.1553 116.2431,-250.7072 119.7285,-254.2922 119.7285,-254.2922 119.7285,-254.2922 116.2431,-250.7072 116.502,-257.429 112.7577,-247.1222 112.7577,-247.1222"/>
</g>
<!-- n54 -->
<!-- 54&#45;&gt;n54 -->
<!-- 556 -->
<g id="node4" class="node">
<title>556</title>
<ellipse fill="#000000" stroke="#000000" cx="240" cy="-234" rx="18" ry="18"/>
<text text-anchor="middle" x="240" y="-229.8" font-family="Times,serif" font-size="14.00" fill="#ffffff">556</text>
</g>
<!-- 54&#45;&gt;556 -->
<g id="edge2" class="edge">
<title>54-&gt;556</title>
<path fill="none" stroke="#000000" d="M182.8391,-292.7941C193.2985,-282.0358 208.2435,-266.6639 220.2288,-254.3361"/>
<polygon fill="#000000" stroke="#000000" points="227.2423,-247.1222 223.498,-257.429 223.7569,-250.7072 220.2715,-254.2922 220.2715,-254.2922 220.2715,-254.2922 223.7569,-250.7072 217.045,-251.1553 227.2423,-247.1222 227.2423,-247.1222"/>
</g>
<!-- 3 -->
<g id="node5" class="node">
<title>3</title>
<ellipse fill="#000000" stroke="#000000" cx="59" cy="-162" rx="18" ry="18"/>
<text text-anchor="middle" x="59" y="-157.8" font-family="Times,serif" font-size="14.00" fill="#ffffff">3</text>
</g>
<!-- 33&#45;&gt;3 -->
<g id="edge3" class="edge">
<title>33-&gt;3</title>
<path fill="none" stroke="#000000" d="M90.9008,-218.0209C85.6988,-208.8857 79.0608,-197.2286 73.1884,-186.9162"/>
<polygon fill="#000000" stroke="#000000" points="68.0738,-177.9345 76.9327,-184.3975 70.548,-182.2794 73.0222,-186.6243 73.0222,-186.6243 73.0222,-186.6243 70.548,-182.2794 69.1118,-188.8511 68.0738,-177.9345 68.0738,-177.9345"/>
</g>
<!-- n33 -->
<!-- 33&#45;&gt;n33 -->
<!-- 45 -->
<g id="node7" class="node">
<title>45</title>
<ellipse fill="#000000" stroke="#000000" cx="141" cy="-162" rx="18" ry="18"/>
<text text-anchor="middle" x="141" y="-157.8" font-family="Times,serif" font-size="14.00" fill="#ffffff">45</text>
</g>
<!-- 33&#45;&gt;45 -->
<g id="edge4" class="edge">
<title>33-&gt;45</title>
<path fill="none" stroke="#000000" d="M109.0992,-218.0209C114.3012,-208.8857 120.9392,-197.2286 126.8116,-186.9162"/>
<polygon fill="#000000" stroke="#000000" points="131.9262,-177.9345 130.8882,-188.8511 129.452,-182.2794 126.9778,-186.6243 126.9778,-186.6243 126.9778,-186.6243 129.452,-182.2794 123.0673,-184.3975 131.9262,-177.9345 131.9262,-177.9345"/>
</g>
<!-- 67 -->
<g id="node8" class="node">
<title>67</title>
<ellipse fill="#aa0000" stroke="#000000" cx="199" cy="-162" rx="18" ry="18"/>
<text text-anchor="middle" x="199" y="-157.8" font-family="Times,serif" font-size="14.00" fill="#ffffff">67</text>
</g>
<!-- 556&#45;&gt;67 -->
<g id="edge5" class="edge">
<title>556-&gt;67</title>
<path fill="none" stroke="#000000" d="M230.9008,-218.0209C225.6988,-208.8857 219.0608,-197.2286 213.1884,-186.9162"/>
<polygon fill="#000000" stroke="#000000" points="208.0738,-177.9345 216.9327,-184.3975 210.548,-182.2794 213.0222,-186.6243 213.0222,-186.6243 213.0222,-186.6243 210.548,-182.2794 209.1118,-188.8511 208.0738,-177.9345 208.0738,-177.9345"/>
</g>
<!-- n556 -->
<!-- 556&#45;&gt;n556 -->
<!-- 2423 -->
<g id="node10" class="node">
<title>2423</title>
<ellipse fill="#000000" stroke="#000000" cx="339" cy="-162" rx="18" ry="18"/>
<text text-anchor="middle" x="339" y="-157.8" font-family="Times,serif" font-size="14.00" fill="#ffffff">2423</text>
</g>
<!-- 556&#45;&gt;2423 -->
<g id="edge6" class="edge">
<title>556-&gt;2423</title>
<path fill="none" stroke="#000000" d="M254.6078,-223.3762C270.8394,-211.5713 297.2555,-192.3596 316.2113,-178.5736"/>
<polygon fill="#000000" stroke="#000000" points="324.3323,-172.6674 318.8917,-182.1885 320.2886,-175.6083 316.2449,-178.5492 316.2449,-178.5492 316.2449,-178.5492 320.2886,-175.6083 313.5981,-174.9099 324.3323,-172.6674 324.3323,-172.6674"/>
</g>
<!-- 1 -->
<g id="node11" class="node">
<title>1</title>
<ellipse fill="#aa0000" stroke="#000000" cx="18" cy="-90" rx="18" ry="18"/>
<text text-anchor="middle" x="18" y="-85.8" font-family="Times,serif" font-size="14.00" fill="#ffffff">1</text>
</g>
<!-- 3&#45;&gt;1 -->
<g id="edge7" class="edge">
<title>3-&gt;1</title>
<path fill="none" stroke="#000000" d="M49.9008,-146.0209C44.6988,-136.8857 38.0608,-125.2286 32.1884,-114.9162"/>
<polygon fill="#000000" stroke="#000000" points="27.0738,-105.9345 35.9327,-112.3975 29.548,-110.2794 32.0222,-114.6243 32.0222,-114.6243 32.0222,-114.6243 29.548,-110.2794 28.1118,-116.8511 27.0738,-105.9345 27.0738,-105.9345"/>
</g>
<!-- n3 -->
<!-- 3&#45;&gt;n3 -->
<!-- 4 -->
<g id="node13" class="node">
<title>4</title>
<ellipse fill="#aa0000" stroke="#000000" cx="100" cy="-90" rx="18" ry="18"/>
<text text-anchor="middle" x="100" y="-85.8" font-family="Times,serif" font-size="14.00" fill="#ffffff">4</text>
</g>
<!-- 3&#45;&gt;4 -->
<g id="edge8" class="edge">
<title>3-&gt;4</title>
<path fill="none" stroke="#000000" d="M68.0992,-146.0209C73.3012,-136.8857 79.9392,-125.2286 85.8116,-114.9162"/>
<polygon fill="#000000" stroke="#000000" points="90.9262,-105.9345 89.8882,-116.8511 88.452,-110.2794 85.9778,-114.6243 85.9778,-114.6243 85.9778,-114.6243 88.452,-110.2794 82.0673,-112.3975 90.9262,-105.9345 90.9262,-105.9345"/>
</g>
<!-- 55 -->
<g id="node14" class="node">
<title>55</title>
<ellipse fill="#000000" stroke="#000000" cx="158" cy="-90" rx="18" ry="18"/>
<text text-anchor="middle" x="158" y="-85.8" font-family="Times,serif" font-size="14.00" fill="#ffffff">55</text>
</g>
<!-- 67&#45;&gt;55 -->
<g id="edge9" class="edge">
<title>67-&gt;55</title>
<path fill="none" stroke="#000000" d="M189.9008,-146.0209C184.6988,-136.8857 178.0608,-125.2286 172.1884,-114.9162"/>
<polygon fill="#000000" stroke="#000000" points="167.0738,-105.9345 175.9327,-112.3975 169.548,-110.2794 172.0222,-114.6243 172.0222,-114.6243 172.0222,-114.6243 169.548,-110.2794 168.1118,-116.8511 167.0738,-105.9345 167.0738,-105.9345"/>
</g>
<!-- n67 -->
<!-- 67&#45;&gt;n67 -->
<!-- 99 -->
<g id="node16" class="node">
<title>99</title>
<ellipse fill="#000000" stroke="#000000" cx="240" cy="-90" rx="18" ry="18"/>
<text text-anchor="middle" x="240" y="-85.8" font-family="Times,serif" font-size="14.00" fill="#ffffff">99</text>
</g>
<!-- 67&#45;&gt;99 -->
<g id="edge10" class="edge">
<title>67-&gt;99</title>
<path fill="none" stroke="#000000" d="M208.0992,-146.0209C213.3012,-136.8857 219.9392,-125.2286 225.8116,-114.9162"/>
<polygon fill="#000000" stroke="#000000" points="230.9262,-105.9345 229.8882,-116.8511 228.452,-110.2794 225.9778,-114.6243 225.9778,-114.6243 225.9778,-114.6243 228.452,-110.2794 222.0673,-112.3975 230.9262,-105.9345 230.9262,-105.9345"/>
</g>
<!-- 2345 -->
<g id="node17" class="node">
<title>2345</title>
<ellipse fill="#aa0000" stroke="#000000" cx="298" cy="-90" rx="18" ry="18"/>
<text text-anchor="middle" x="298" y="-85.8" font-family="Times,serif" font-size="14.00" fill="#ffffff">2345</text>
</g>
<!-- 2423&#45;&gt;2345 -->
<g id="edge11" class="edge">
<title>2423-&gt;2345</title>
<path fill="none" stroke="#000000" d="M329.9008,-146.0209C324.6988,-136.8857 318.0608,-125.2286 312.1884,-114.9162"/>
<polygon fill="#000000" stroke="#000000" points="307.0738,-105.9345 315.9327,-112.3975 309.548,-110.2794 312.0222,-114.6243 312.0222,-114.6243 312.0222,-114.6243 309.548,-110.2794 308.1118,-116.8511 307.0738,-105.9345 307.0738,-105.9345"/>
</g>
<!-- n2423 -->
<!-- 2423&#45;&gt;n2423 -->
<!-- 6666 -->
<g id="node19" class="node">
<title>6666</title>
<ellipse fill="#aa0000" stroke="#000000" cx="380" cy="-90" rx="18" ry="18"/>
<text text-anchor="middle" x="380" y="-85.8" font-family="Times,serif" font-size="14.00" fill="#ffffff">6666</text>
</g>
<!-- 2423&#45;&gt;6666 -->
<g id="edge12" class="edge">
<title>2423-&gt;6666</title>
<path fill="none" stroke="#000000" d="M348.0992,-146.0209C353.3012,-136.8857 359.9392,-125.2286 365.8116,-114.9162"/>
<polygon fill="#000000" stroke="#000000" points="370.9262,-105.9345 369.8882,-116.8511 368.452,-110.2794 365.9778,-114.6243 365.9778,-114.6243 365.9778,-114.6243 368.452,-110.2794 362.0673,-112.3975 370.9262,-105.9345 370.9262,-105.9345"/>
</g>
<!-- 98 -->
<g id="node20" class="node">
<title>98</title>
<ellipse fill="#aa0000" stroke="#000000" cx="199" cy="-18" rx="18" ry="18"/>
<text text-anchor="middle" x="199" y="-13.8" font-family="Times,serif" font-size="14.00" fill="#ffffff">98</text>
</g>
<!-- 99&#45;&gt;98 -->
<g id="edge13" class="edge">
<title>99-&gt;98</title>
<path fill="none" stroke="#000000" d="M230.9008,-74.0209C225.6988,-64.8857 219.0608,-53.2286 213.1884,-42.9162"/>
<polygon fill="#000000" stroke="#000000" points="208.0738,-33.9345 216.9327,-40.3975 210.548,-38.2794 213.0222,-42.6243 213.0222,-42.6243 213.0222,-42.6243 210.548,-38.2794 209.1118,-44.8511 208.0738,-33.9345 208.0738,-33.9345"/>
</g>
<!-- n99 -->
<!-- 99&#45;&gt;n99 -->
<!-- 100 -->
<g id="node22" class="node">
<title>100</title>
<ellipse fill="#aa0000" stroke="#000000" cx="281" cy="-18" rx="18" ry="18"/>
<text text-anchor="middle" x="281" y="-13.8" font-family="Times,serif" font-size="14.00" fill="#ffffff">100</text>
</g>
<!-- 99&#45;&gt;100 -->
<g id="edge14" class="edge">
<title>99-&gt;100</title>
<path fill="none" stroke="#000000" d="M249.0992,-74.0209C254.3012,-64.8857 260.9392,-53.2286 266.8116,-42.9162"/>
<polygon fill="#000000" stroke="#000000" points="271.9262,-33.9345 270.8882,-44.8511 269.452,-38.2794 266.9778,-42.6243 266.9778,-42.6243 266.9778,-42.6243 269.452,-38.2794 263.0673,-40.3975 271.9262,-33.9345 271.9262,-33.9345"/>
</g>
</g>
</svg>